<?xml version="1.0" encoding="UTF-8" standalone="no"?>
<svg
   preserveAspectRatio="xMidYMid"
   version="1.0"
   viewBox="-2.1 0 285.71429 285.71429"
   zoomAndPan="magnify"
   fill="#ffde59"
   width="200"
   height="200"
   xmlns="http://www.w3.org/2000/svg">
  <g id="drops">
    <path
       d="m -2.1002673,69.837615 c -1.83483,14.121966 -7.0497099,27.79231 -15.0859297,39.548825 -4.99362,7.30537 -11.020716,13.83487 -16.576176,20.72266 -5.55546,6.88777 -10.715519,14.27543 -13.595703,22.64257 -4.922936,14.30149 -2.45758,30.92325 6.367187,43.20704 8.824767,12.28377 23.765552,19.91796 38.8906217,19.91796 15.1250793,0 30.0678193,-7.63418 38.8925793,-19.91796 8.82477,-12.28379 11.28817,-28.90554 6.36524,-43.20704 -2.88019,-8.36714 -8.04024,-15.7548 -13.59571,-22.64257 -5.55545,-6.88779 -11.58255,-13.41729 -16.57617,-20.72266 C 4.9494526,97.629926 -0.26543733,83.959581 -2.1002673,69.837615 Z M -17.535807,123.6755 c -1.21937,0.96552 -2.40526,1.97406 -3.55664,3.01953 -5.497881,5.21081 -9.603964,11.88966 -11.712895,19.16797 -2.542042,8.77307 -2.171771,18.36577 1.041016,26.91602 1.907448,5.07631 4.793516,9.78154 8.451169,13.78515 l -7.558591,10.01172 c -6.255979,-5.88089 -10.342984,-14.01719 -11.326172,-22.54687 -1.063679,-9.22799 1.431191,-18.59713 5.591797,-26.90235 3.852078,-7.68935 9.147081,-14.65071 15.513676,-20.43164 1.12911,-1.07015 2.3152,-2.08106 3.55664,-3.01953 z m -3.8418,64.6211 c 0.45,0.40821 0.90718,0.81045 1.36914,1.20507 3.08426,2.63476 6.43061,4.96204 9.97461,6.93555 l -8.54688,10.73633 c -1.6787,-0.99847 -3.28358,-2.11907 -4.79882,-3.35156 -2.01114,-1.63585 -3.86374,-3.46781 -5.521488,-5.46094 z" />
    <path
       d="m 283.61402,69.837615 c -1.83483,14.121966 -7.04971,27.79231 -15.08593,39.548825 -4.99362,7.30537 -11.02072,13.83487 -16.57618,20.72266 -5.55546,6.88777 -10.71552,14.27543 -13.5957,22.64257 -4.92294,14.30149 -2.45758,30.92325 6.36719,43.20704 8.82476,12.28377 23.76555,19.91796 38.89062,19.91796 15.12508,0 30.06782,-7.63418 38.89258,-19.91796 8.82477,-12.28379 11.28817,-28.90554 6.36524,-43.20704 -2.88019,-8.36714 -8.04024,-15.7548 -13.59571,-22.64257 -5.55545,-6.88779 -11.58255,-13.41729 -16.57617,-20.72266 C 290.66374,97.629926 285.44885,83.959581 283.61402,69.837615 Z M 268.17848,123.6755 c -1.21937,0.96552 -2.40526,1.97406 -3.55664,3.01953 -5.49788,5.21081 -9.60397,11.88966 -11.7129,19.16797 -2.54204,8.77307 -2.17177,18.36577 1.04102,26.91602 1.90745,5.07631 4.79352,9.78154 8.45117,13.78515 l -7.55859,10.01172 c -6.25598,-5.88089 -10.34299,-14.01719 -11.32617,-22.54687 -1.06368,-9.22799 1.43119,-18.59713 5.59179,-26.90235 3.85208,-7.68935 9.14708,-14.65071 15.51368,-20.43164 1.12911,-1.07015 2.3152,-2.08106 3.55664,-3.01953 z m -3.8418,64.6211 c 0.45,0.40821 0.90718,0.81045 1.36914,1.20507 3.08426,2.63476 6.43061,4.96204 9.97461,6.93555 l -8.54688,10.73633 c -1.6787,-0.99847 -3.28358,-2.11907 -4.79882,-3.35156 -2.01114,-1.63585 -3.86374,-3.46781 -5.52149,-5.46094 z" />
    <path
       d="m 140.75688,-73.019528 c -1.83483,14.121966 -7.04971,27.79231 -15.08593,39.548825 -4.99362,7.30537 -11.02072,13.83487 -16.57618,20.72266 -5.55546,6.8877705 -10.715525,14.2754305 -13.595705,22.6425705 -4.92294,14.3014895 -2.45758,30.9232495 6.367195,43.2070405 8.82476,12.28377 23.76555,19.91796 38.89062,19.91796 15.12508,0 30.06782,-7.63418 38.89258,-19.91796 8.82477,-12.283791 11.28817,-28.905541 6.36524,-43.2070405 -2.88019,-8.36714 -8.04024,-15.7548 -13.59571,-22.6425705 -5.55545,-6.88779 -11.58255,-13.41729 -16.57617,-20.72266 -8.03622,-11.756514 -13.25111,-25.426859 -15.08594,-39.548825 z m -15.43554,53.837885 c -1.21937,0.96552 -2.40526,1.97406 -3.55664,3.01953 -5.49788,5.210811 -9.60397,11.8896605 -11.7129,19.1679705 -2.54204,8.7730695 -2.17177,18.3657695 1.04102,26.9160195 1.90745,5.07631 4.79352,9.78154 8.45117,13.78515 l -7.55859,10.011721 c -6.25598,-5.880891 -10.34299,-14.017191 -11.32617,-22.546871 -1.063685,-9.22799 1.43119,-18.597129 5.59179,-26.9023495 3.85208,-7.68935 9.14708,-14.6507105 15.51368,-20.4316405 1.12911,-1.07015 2.3152,-2.08106 3.55664,-3.01953 z m -3.8418,64.621101 c 0.45,0.408209 0.90718,0.81045 1.36914,1.20507 3.08426,2.63476 6.43061,4.96204 9.97461,6.93555 l -8.54688,10.73633 c -1.6787,-0.99847 -3.28358,-2.11907 -4.79882,-3.35156 -2.01114,-1.63585 -3.86374,-3.46781 -5.52149,-5.46094 z" />
    <path
       d="m 140.75688,212.69476 c -1.83483,14.12196 -7.04971,27.79231 -15.08593,39.54882 -4.99362,7.30537 -11.02072,13.83487 -16.57618,20.72266 -5.55546,6.88777 -10.715526,14.27543 -13.595706,22.64257 -4.92294,14.30149 -2.45758,30.92325 6.367196,43.20704 8.82476,12.28377 23.76555,19.91796 38.89062,19.91796 15.12508,0 30.06782,-7.63418 38.89258,-19.91796 8.82477,-12.28379 11.28817,-28.90554 6.36524,-43.20704 -2.88019,-8.36714 -8.04024,-15.7548 -13.59571,-22.64257 -5.55545,-6.88779 -11.58255,-13.41729 -16.57617,-20.72266 -8.03622,-11.75651 -13.25111,-25.42686 -15.08594,-39.54882 z m -15.43554,53.83788 c -1.21937,0.96552 -2.40526,1.97406 -3.55664,3.01953 -5.49788,5.21081 -9.60397,11.88966 -11.7129,19.16797 -2.54204,8.77307 -2.17177,18.36577 1.04102,26.91602 1.90745,5.07631 4.79352,9.78154 8.45117,13.78515 l -7.55859,10.01172 c -6.25598,-5.88089 -10.34299,-14.01719 -11.32617,-22.54687 -1.063686,-9.22799 1.43119,-18.59713 5.59179,-26.90235 3.85208,-7.68935 9.14708,-14.65071 15.51368,-20.43164 1.12911,-1.07015 2.3152,-2.08106 3.55664,-3.01953 z m -3.8418,64.6211 c 0.45,0.40821 0.90718,0.81045 1.36914,1.20507 3.08426,2.63476 6.43061,4.96204 9.97461,6.93555 l -8.54688,10.73633 c -1.6787,-0.99847 -3.28358,-2.11907 -4.79882,-3.35156 -2.01114,-1.63585 -3.86374,-3.46781 -5.52149,-5.46094 z" />
  </g>
</svg>
